<?xml version="1.0" encoding="UTF-8" standalone="no"?>
<!-- Created with Inkscape (http://www.inkscape.org/) -->
<svg xmlns:dc="http://purl.org/dc/elements/1.1/" xmlns:cc="http://creativecommons.org/ns#" xmlns:rdf="http://www.w3.org/1999/02/22-rdf-syntax-ns#" xmlns:svg="http://www.w3.org/2000/svg" xmlns="http://www.w3.org/2000/svg" xmlns:sodipodi="http://sodipodi.sourceforge.net/DTD/sodipodi-0.dtd" xmlns:inkscape="http://www.inkscape.org/namespaces/inkscape" width="125" height="125" id="svg21042" version="1.1" inkscape:version="0.48.4 r9939" sodipodi:docname="arduino.svg">
  <defs id="defs21044"/>
  <sodipodi:namedview id="base" pagecolor="#ffffff" bordercolor="#666666" borderopacity="1.0" inkscape:pageopacity="0.0" inkscape:pageshadow="2" inkscape:zoom="3.959798" inkscape:cx="14.657517" inkscape:cy="58.171106" inkscape:document-units="px" inkscape:current-layer="layer1" showgrid="false" inkscape:window-width="1871" inkscape:window-height="1056" inkscape:window-x="49" inkscape:window-y="24" inkscape:window-maximized="1" fit-margin-top="0" fit-margin-left="0" fit-margin-right="0" fit-margin-bottom="0"/>
  <metadata id="metadata21047">
    <rdf:RDF>
      <cc:Work rdf:about="">
        <dc:format>image/svg+xml</dc:format>
        <dc:type rdf:resource="http://purl.org/dc/dcmitype/StillImage"/>
        <dc:title/>
      </cc:Work>
    </rdf:RDF>
  </metadata>
  <g inkscape:label="Calque 1" inkscape:groupmode="layer" id="layer1" transform="translate(-317.55075,-486.02463)">
    <rect style="fill:#00979c;fill-opacity:1;stroke:none" id="rect20928" width="125" height="125" x="317.55075" y="486.02463" rx="0.62749994" ry="0.62714684"/>
    <path sodipodi:nodetypes="cssssssccssssssssssccsssccsscsssssssccccccccccsssscsssccccccccccccccccccccccccccc" inkscape:connector-curvature="0" id="path2984" d="m 356.2075,571.54929 c -0.19706,-0.0278 -0.78826,-0.1069 -1.31376,-0.1759 -8.62718,-1.13284 -15.78682,-7.72372 -17.49481,-16.10497 -0.35049,-1.7199 -0.35049,-6.18472 0,-7.90461 2.00233,-9.82559 11.16844,-16.76976 21.52787,-16.30935 4.45242,0.1979 8.11685,1.31878 11.69544,3.57746 2.90272,1.8321 6.23443,5.19299 8.66007,8.73597 0.38087,0.55632 0.71937,1.01253 0.75222,1.0138 0.0329,0.002 0.28028,-0.33249 0.54987,-0.74167 2.21278,-3.35867 5.8125,-7.03525 8.7683,-8.95552 5.63047,-3.65788 13.13794,-4.65677 19.48499,-2.59255 1.33967,0.43571 3.70988,1.56099 4.87362,2.31381 3.92093,2.53643 6.90127,6.34576 8.34805,10.67005 0.76118,2.27507 0.90607,3.27296 0.90607,6.2403 0,2.96259 -0.14266,3.94856 -0.90293,6.24029 -2.15345,6.49134 -7.76962,11.6462 -14.53559,13.34167 -2.24179,0.56177 -3.18597,0.66206 -6.23318,0.66206 -2.2332,0 -3.05072,-0.0456 -4.00103,-0.22287 -6.329,-1.18101 -11.03636,-4.60114 -15.88468,-11.541 -0.5912,-0.84623 -1.14209,-1.63589 -1.22419,-1.7548 -0.14409,-0.20866 -0.15451,-0.20866 -0.29859,0 -2.61729,3.79038 -3.52555,4.94898 -5.33512,6.80567 -3.45274,3.54268 -6.94071,5.50414 -11.4224,6.42341 -0.93151,0.19107 -1.76651,0.25278 -3.87466,0.28637 -1.47799,0.0235 -2.8485,0.0201 -3.04556,-0.008 z m 6.44662,-7.49701 c 4.34089,-1.14767 7.58892,-4.16628 12.01867,-11.16976 l 1.16221,-1.83745 -0.66045,-1.02897 c -5.33427,-8.31061 -9.8939,-11.56809 -16.51865,-11.80118 -4.10615,-0.14447 -7.58346,1.12121 -10.45161,3.80422 -3.69344,3.45503 -4.9985,8.74818 -3.33422,13.52333 1.29486,3.71524 4.51307,6.81887 8.42949,8.12937 1.95839,0.65532 2.90227,0.77641 5.71463,0.73315 2.19302,-0.0338 2.57268,-0.0706 3.63993,-0.35271 z m -11.28368,-13.33333 0,-1.55264 7.16602,0 7.16603,0 0,1.55264 0,1.55263 -7.16603,0 -7.16602,0 z m 52.99901,13.55469 c 9.04089,-1.46629 14.10424,-10.6381 10.23495,-18.53973 -1.54647,-3.15812 -4.39528,-5.62467 -7.817,-6.76811 -1.86923,-0.62464 -3.29609,-0.824 -5.37423,-0.75088 -6.62717,0.23318 -11.18354,3.48953 -16.5239,11.80931 l -0.66568,1.03707 1.28553,2.00849 c 2.16354,3.38027 3.65813,5.34671 5.35935,7.05134 2.266,2.27053 4.75758,3.6433 7.51768,4.14199 1.28498,0.23216 4.58098,0.23795 5.9833,0.0106 z m -5.34496,-9.55367 0,-1.97065 -1.91094,0 -1.91094,0 0,-2.03037 0,-2.03038 1.91094,0 1.91094,0 0,-1.91094 0,-1.91094 2.03037,0 2.03038,0 0,1.91094 0,1.91094 1.91094,0 1.91094,0 0,2.03038 0,2.03037 -1.91094,0 -1.91094,0 0,1.97065 0,1.97066 -2.03038,0 -2.03037,0 z" style="opacity:0.3;fill:#2e3436;fill-opacity:1;stroke:none"/>
    <path style="fill:#ffffff;fill-opacity:1" d="m 356.2075,568.77135 c -0.19706,-0.0278 -0.78826,-0.1069 -1.31376,-0.1759 -8.62718,-1.13284 -15.78682,-7.72372 -17.49481,-16.10497 -0.35049,-1.7199 -0.35049,-6.18472 0,-7.90461 2.00233,-9.82559 11.16844,-16.76976 21.52787,-16.30935 4.45242,0.1979 8.11685,1.31878 11.69544,3.57746 2.90272,1.8321 6.23443,5.19299 8.66007,8.73597 0.38087,0.55632 0.71937,1.01253 0.75222,1.0138 0.0329,0.002 0.28028,-0.33249 0.54987,-0.74167 2.21278,-3.35867 5.8125,-7.03525 8.7683,-8.95552 5.63047,-3.65788 13.13794,-4.65677 19.48499,-2.59255 1.33967,0.43571 3.70988,1.56099 4.87362,2.31381 3.92093,2.53643 6.90127,6.34576 8.34805,10.67005 0.76118,2.27507 0.90607,3.27296 0.90607,6.2403 0,2.96259 -0.14266,3.94856 -0.90293,6.24029 -2.15345,6.49134 -7.76962,11.6462 -14.53559,13.34167 -2.24179,0.56177 -3.18597,0.66206 -6.23318,0.66206 -2.2332,0 -3.05072,-0.0456 -4.00103,-0.22287 -6.329,-1.18101 -11.03636,-4.60114 -15.88468,-11.541 -0.5912,-0.84623 -1.14209,-1.63589 -1.22419,-1.7548 -0.14409,-0.20866 -0.15451,-0.20866 -0.29859,0 -2.61729,3.79038 -3.52555,4.94898 -5.33512,6.80567 -3.45274,3.54268 -6.94071,5.50414 -11.4224,6.42341 -0.93151,0.19107 -1.76651,0.25278 -3.87466,0.28637 -1.47799,0.0235 -2.8485,0.0201 -3.04556,-0.008 z m 6.44662,-7.49701 c 4.34089,-1.14767 7.58892,-4.16628 12.01867,-11.16976 l 1.16221,-1.83745 -0.66045,-1.02897 c -5.33427,-8.31061 -9.8939,-11.56809 -16.51865,-11.80118 -4.10615,-0.14447 -7.58346,1.12121 -10.45161,3.80422 -3.69344,3.45503 -4.9985,8.74818 -3.33422,13.52333 1.29486,3.71524 4.51307,6.81887 8.42949,8.12937 1.95839,0.65532 2.90227,0.77641 5.71463,0.73315 2.19302,-0.0338 2.57268,-0.0706 3.63993,-0.35271 z m -11.28368,-13.33333 0,-1.55264 7.16602,0 7.16603,0 0,1.55264 0,1.55263 -7.16603,0 -7.16602,0 z m 52.99901,13.55469 c 9.04089,-1.46629 14.10424,-10.6381 10.23495,-18.53973 -1.54647,-3.15812 -4.39528,-5.62467 -7.817,-6.76811 -1.86923,-0.62464 -3.29609,-0.824 -5.37423,-0.75088 -6.62717,0.23318 -11.18354,3.48953 -16.5239,11.80931 l -0.66568,1.03707 1.28553,2.00849 c 2.16354,3.38027 3.65813,5.34671 5.35935,7.05134 2.266,2.27053 4.75758,3.6433 7.51768,4.14199 1.28498,0.23216 4.58098,0.23795 5.9833,0.0106 z m -5.34496,-9.55367 0,-1.97065 -1.91094,0 -1.91094,0 0,-2.03037 0,-2.03038 1.91094,0 1.91094,0 0,-1.91094 0,-1.91094 2.03037,0 2.03038,0 0,1.91094 0,1.91094 1.91094,0 1.91094,0 0,2.03038 0,2.03037 -1.91094,0 -1.91094,0 0,1.97065 0,1.97066 -2.03038,0 -2.03037,0 z" id="path21059" inkscape:connector-curvature="0" sodipodi:nodetypes="cssssssccssssssssssccsssccsscsssssssccccccccccsssscsssccccccccccccccccccccccccccc"/>
  </g>
</svg>