<?xml version="1.0" encoding="UTF-8" standalone="no"?>
<!-- Created with Inkscape (http://www.inkscape.org/) -->

<svg
   xmlns:dc="http://purl.org/dc/elements/1.1/"
   xmlns:cc="http://creativecommons.org/ns#"
   xmlns:rdf="http://www.w3.org/1999/02/22-rdf-syntax-ns#"
   xmlns:svg="http://www.w3.org/2000/svg"
   xmlns="http://www.w3.org/2000/svg"
   xmlns:sodipodi="http://sodipodi.sourceforge.net/DTD/sodipodi-0.dtd"
   xmlns:inkscape="http://www.inkscape.org/namespaces/inkscape"
   width="35.277779mm"
   height="35.277779mm"
   viewBox="0 0 125.00001 125.00001"
   id="svg2"
   version="1.1"
   inkscape:version="0.91 r13725"
   sodipodi:docname="leds.svg">
  <defs
     id="defs4" />
  <sodipodi:namedview
     id="base"
     pagecolor="#ffffff"
     bordercolor="#666666"
     borderopacity="1.0"
     inkscape:pageopacity="0.0"
     inkscape:pageshadow="2"
     inkscape:zoom="1.4389623"
     inkscape:cx="-89.430967"
     inkscape:cy="66.987767"
     inkscape:document-units="px"
     inkscape:current-layer="layer1"
     showgrid="false"
     showguides="false"
     inkscape:window-width="1440"
     inkscape:window-height="785"
     inkscape:window-x="0"
     inkscape:window-y="1"
     inkscape:window-maximized="1"
     fit-margin-top="0"
     fit-margin-left="0"
     fit-margin-right="0"
     fit-margin-bottom="0">
    <inkscape:grid
       type="xygrid"
       id="grid4237"
       originx="-52.221414"
       originy="-639.52117" />
  </sodipodi:namedview>
  <metadata
     id="metadata7">
    <rdf:RDF>
      <cc:Work
         rdf:about="">
        <dc:format>image/svg+xml</dc:format>
        <dc:type
           rdf:resource="http://purl.org/dc/dcmitype/StillImage" />
        <dc:title></dc:title>
      </cc:Work>
    </rdf:RDF>
  </metadata>
  <g
     inkscape:label="Calque 1"
     inkscape:groupmode="layer"
     id="layer1"
     transform="translate(-52.221411,-287.84108)">
    <g
       id="g10619"
       transform="matrix(3.5433068,0,0,3.5433071,459.07136,183.61992)">
      <path
         inkscape:connector-curvature="0"
         id="path8"
         d="m -104.1186,-6.0524559 0,0.5150403 0,0.3847927 0,4.62430828 0,24.67176262 0,4.624948 0,0.384366 0,0.515041 1.72082,0 3.157598,0 3.157808,0 3.157806,0 3.157594,0 3.157804,0 3.157806,0 3.157807,0 3.157592,0 3.157805,0 3.157806,0 3.157594,0 3.157806,0 3.157806,0 3.157594,0 2.639791,0 0.518014,0 2.71352,0 0.236485,0 2.245651,0 0,-0.515041 0,-0.384366 0,-4.624948 0,-24.67176262 0,-4.62430828 0,-0.3847927 0,-0.5150403 -2.245651,0 -0.236485,0 -2.71352,0 -0.518014,0 -2.639791,0 -3.157594,0 -3.157806,0 -3.157806,0 -3.157594,0 -3.157806,0 -3.157805,0 -3.157592,0 -3.157807,0 -3.157806,0 -3.157804,0 -3.157594,0 -3.157806,0 -3.157808,0 -3.157598,0 -1.72082,0 z m 2.81806,1.2839874 0.13005,0.141936 0,0.1534132 0,1.0041576 0,1.4690528 0.25561,0.066498 0,0.043338 0,0.1823051 -0.82801,0 -0.0393,-0.1823051 -0.009,-0.043338 0.2556,-0.058427 0,-0.1034683 0,-1.3736516 0,-0.9780233 -0.23139,0.01657 -0.0404,-0.2505092 0.50717,-0.087546 z m 2.872652,0.00851 0.121757,0.1334385 0,0.9574131 0,0.028898 0,0.015939 0.08712,-0.049299 0.09136,-0.035062 0.09561,-0.021252 0.09943,-0.00693 0.188466,0.017846 0.08286,0.021677 8.49e-4,2.176e-4 0.0767,0.031231 0.135993,0.085622 0.112186,0.1113353 0.0037,0.00347 0.09732,0.1489516 0.0699,0.1701924 0.04208,0.1929276 0.01388,0.2141748 -0.002,0.028047 -0.002,0.031656 -0.01466,0.2058884 -0.02317,0.1187766 -0.03314,0.1094278 -0.04208,0.1007095 -0.05163,0.090935 -0.06076,0.081587 -0.07055,0.072458 -0.01293,0.00978 -0.109427,0.081585 -0.129828,0.062463 -0.0057,0.00283 -0.148526,0.038877 -0.161906,0.013243 -0.108151,-0.00568 -0.10113,-0.018272 -0.0937,-0.029955 -0.08669,-0.042077 -0.01722,0.00867 -0.04165,0.0204 -0.0782,0.038877 -0.07416,0.036544 -0.07053,-0.044411 -0.02274,-0.014189 0,-0.06076 0,-0.068627 0,-0.019328 0,-0.7895572 0,-0.2728189 0,-0.516527 0,-0.031026 0,-0.088176 0,-0.8588241 -0.235429,0.01657 -0.03626,-0.2505077 0.271767,-0.041652 0.24371,-0.037396 z m 3.918467,0.1504337 0.006,0 0.09158,0 0.189316,0.2335094 0.318075,0.3924422 -0.0204,0.033564 -0.271757,0 -0.26793,-0.2254344 -0.03888,0.032083 -0.233298,0.1933533 -0.263681,0 -0.01614,-0.029324 0.507178,-0.630202 z m 1.330308,0.095822 0.02018,0.062463 0,0.7143419 0.234361,0 0.187616,0 0.01545,0.00615 0.0049,0.018918 0,0.2428598 0,0.045041 -0.208014,0 -0.234359,0 0,1.1983592 0.0092,0.1107047 0.02742,0.064795 0.04484,0.028046 0.05269,0.0093 0.100284,-0.012297 0.0011,0 0.07712,-0.033564 0.121741,-0.070961 0.0049,0.015766 0.01913,0.061611 0.05015,0.1621189 0.01103,0.036118 -0.07012,0.054391 -0.09647,0.054391 -0.118555,0.038247 -0.0071,0.00205 -0.158508,0.013558 -0.08351,-0.00662 -0.07755,-0.0204 -0.07096,-0.03399 -0.06396,-0.047391 -0.05163,-0.062888 -0.01277,-0.027621 -0.02379,-0.052483 -0.02253,-0.097525 -0.0035,-0.055888 -0.0038,-0.058647 0,-1.2693271 -0.332738,0 -0.0093,-0.045041 -0.04759,-0.2262857 0.02848,-0.041652 0.151064,0 0.210139,0 0,-0.6973437 0.324873,-0.079458 z m 4.413958,0.1315309 0.15149,0.00804 0.146603,0.022103 0.141715,0.036544 0.135771,0.049724 0.0015,6.542e-4 0.1277,0.061832 0.07309,0.044191 0.04865,0.029324 0.114094,0.085622 0.03973,0.036119 0.06502,0.059073 0.09562,0.105171 0.08479,0.1138894 0.07458,0.1221662 0.06204,0.1287561 0.0037,0.00993 0.04612,0.1259972 0.03612,0.141936 0.02231,0.1468233 0.0079,0.1510642 -0.0079,0.1510642 -0.01104,0.072457 -0.0112,0.074366 -0.03612,0.1419361 -0.04972,0.1359766 -0.06204,0.1287562 -0.07458,0.1221662 -0.06141,0.082658 -0.02338,0.031231 -0.06586,0.072457 -0.02975,0.032713 -0.104746,0.095192 -0.114094,0.085622 -0.12174,0.073514 -0.127701,0.061833 -0.0015,6.432e-4 -0.135772,0.049299 -0.141716,0.036969 -0.146602,0.022103 -0.151489,0.00773 -0.150639,-0.00773 -0.147249,-0.022103 -0.141511,-0.036969 -0.135976,-0.049299 -0.129182,-0.062462 -0.121741,-0.073515 -0.113463,-0.085637 -0.06204,-0.056093 -0.04314,-0.039098 -0.02953,-0.032713 -0.05524,-0.060981 -0.0104,-0.011509 -0.08519,-0.1138893 -0.07394,-0.1221663 -0.06246,-0.1287561 -0.04972,-0.1359767 -0.03634,-0.141936 -0.02231,-0.1468233 -0.0077,-0.1510642 0.0077,-0.1510642 0.02231,-0.1468233 0.03634,-0.1419361 0.04612,-0.1259971 0.0037,-0.00993 0.06246,-0.1287561 0.07394,-0.1221662 0.08519,-0.1138894 0.09519,-0.105171 0.04314,-0.039098 0.06204,-0.056093 0.113464,-0.085622 0.121741,-0.073515 0.129182,-0.062463 0.135976,-0.049724 0.14151,-0.036544 0.08562,-0.012927 0.06163,-0.00915 0.150638,-0.00804 z m 3.681983,0 0.05291,0.00283 0.09838,0.00536 0.146397,0.022103 0.141937,0.036544 0.135567,0.049724 0.129607,0.062463 0.121741,0.073515 0.113668,0.085622 0.104966,0.095192 0.09561,0.105171 0.08477,0.1138894 0.07437,0.1221662 0.06205,0.1287562 0.0037,0.00993 0.04612,0.1259972 0.03654,0.1419361 0.01933,0.1268485 0.003,0.019975 0.0074,0.1510641 -0.0074,0.1510643 -0.01088,0.072458 -0.01151,0.074365 -0.03654,0.141936 -0.04972,0.1359767 -0.0204,0.042504 -0.04165,0.086268 -0.07437,0.1221662 -0.08479,0.1138893 -0.06586,0.072458 -0.02975,0.032713 -0.104966,0.095192 -0.113668,0.085622 -0.121741,0.073515 -0.129607,0.062463 -0.135551,0.049299 -0.141936,0.037191 -0.146397,0.021883 -0.09838,0.00505 -0.05291,0.00252 -0.151065,-0.00773 -0.146823,-0.021882 -0.141511,-0.037191 -0.135977,-0.049299 -0.129607,-0.062463 -0.121741,-0.073514 -0.113243,-0.085622 -0.105391,-0.095192 -0.02953,-0.032714 -0.06566,-0.072457 -0.08477,-0.1138893 -0.07437,-0.1221662 -0.04165,-0.086268 -0.0204,-0.042488 -0.04972,-0.1359766 -0.02571,-0.099433 -0.01088,-0.042487 -0.01151,-0.074366 -0.01103,-0.072457 -0.0015,-0.031452 -0.0057,-0.1196279 0.0072,-0.1510642 0.0041,-0.025918 0.01827,-0.1209051 0.01403,-0.053759 0.005,-0.019549 0.01764,-0.068627 0.04612,-0.1259971 0.0037,-0.00993 0.009,-0.018903 0.05311,-0.1098535 0.07437,-0.1221661 0.08479,-0.1138894 0.0952,-0.1051711 0.09752,-0.088176 0.0079,-0.00693 0.113243,-0.085622 0.09008,-0.054391 0.03166,-0.019124 0.129608,-0.062463 0.135976,-0.049724 0.14151,-0.036544 0.146825,-0.022103 0.151063,-0.00804 z m 3.68198,0 0.15086,0.00804 0.146823,0.022103 0.0204,0.00505 0.121314,0.031452 0.135772,0.049724 0.129181,0.062463 0.121741,0.073515 0.11367,0.085622 0.104966,0.095192 0.06268,0.069273 0.03293,0.035914 0.08519,0.1138894 0.07394,0.1221662 0.06246,0.1287561 0.0037,0.00993 0.04612,0.1259972 0.03612,0.141936 0.02253,0.1468233 0.0077,0.1510642 -0.0077,0.1510642 -0.01103,0.072457 -0.01151,0.074366 -0.03612,0.141936 -0.04972,0.1359925 -0.06246,0.1287561 -0.07394,0.122182 -0.08519,0.1138893 -0.03293,0.035913 -0.03293,0.036544 -0.02975,0.032714 -0.104967,0.095191 -0.113669,0.085622 -0.121741,0.073514 -0.129181,0.062463 -0.135772,0.049299 -0.121314,0.031656 -0.0204,0.00552 -0.146823,0.021882 -0.15086,0.00773 -0.15149,-0.00773 -0.146823,-0.021882 -0.14151,-0.037175 -0.03145,-0.011509 -0.104541,-0.037821 -0.129182,-0.062463 -0.12174,-0.073515 -0.113669,-0.085622 -0.105391,-0.095192 -0.02953,-0.032713 -0.06565,-0.072458 -0.08477,-0.1138893 -0.07394,-0.1221661 -0.04123,-0.084771 -0.02125,-0.043985 -0.04972,-0.1359767 -0.03634,-0.1419361 -0.02231,-0.1468233 -0.0077,-0.1510641 0.0077,-0.1510643 0.02231,-0.1468232 0.03634,-0.141936 0.04611,-0.1259973 0.0037,-0.00993 0.06246,-0.1287561 0.07394,-0.1221663 0.08479,-0.1138893 0.0952,-0.1051711 0.105392,-0.095191 0.113669,-0.085622 0.12174,-0.073515 0.129182,-0.062463 0.06311,-0.023159 0.04143,-0.015134 0.03145,-0.011509 0.141511,-0.036544 0.146823,-0.022103 0.15149,-0.00804 z m 3.681559,0 0.151285,0.00804 0.146398,0.022103 0.141935,0.036544 0.135551,0.049724 0.0085,0.0041 0.120684,0.058427 0.121757,0.073515 0.114094,0.085622 0.104966,0.095191 0.0952,0.1051712 0.08519,0.1138893 0.07437,0.1221662 0.06205,0.1287562 0.0037,0.00993 0.04612,0.1259972 0.03634,0.1419361 0.02231,0.1468233 0.0077,0.1510642 -0.0077,0.1510642 -0.02231,0.1468232 -0.03634,0.1419361 -0.04972,0.1359767 -0.06204,0.1287561 -0.07437,0.122182 -0.08519,0.1138894 -0.06566,0.072458 -0.02953,0.032729 -0.104966,0.095192 -0.114094,0.085622 -0.121741,0.073514 -0.120684,0.058427 -0.0086,0.0041 -0.135551,0.049299 -0.141936,0.037191 -0.146398,0.021882 -0.151284,0.00773 -0.151285,-0.00773 -0.147029,-0.021882 -0.14129,-0.037191 -0.136197,-0.049299 -0.129182,-0.062463 -0.121741,-0.073514 -0.113243,-0.085637 -0.05524,-0.049929 -0.05015,-0.045263 -0.02953,-0.032713 -0.06566,-0.072457 -0.08519,-0.1138893 -0.07394,-0.1221663 -0.06246,-0.1287561 -0.04972,-0.1359767 -0.03612,-0.141936 -0.01151,-0.074366 -0.01103,-0.072457 -0.0077,-0.1510642 0.0077,-0.1510642 0.02253,-0.1468233 0.03612,-0.1419361 0.04612,-0.1259971 0.0037,-0.00993 0.06246,-0.1287562 0.07394,-0.1221661 0.08519,-0.1138894 0.09519,-0.105171 0.05015,-0.045263 0.05524,-0.049929 0.113243,-0.085622 0.121741,-0.073514 0.129182,-0.062463 0.136197,-0.049724 0.14129,-0.036544 0.09264,-0.014031 0.05439,-0.00804 0.151285,-0.00804 z m -3.684532,0.4332367 -0.09477,0.00568 -0.08647,0.015939 -0.143638,0.050149 -0.103043,0.056519 -0.04037,0.029955 -0.02444,0.017846 -0.01679,0.035913 0,0.26793 0,1.5695543 0.01975,0.0093 0.02146,0.00978 0.03273,0.015292 0.06586,0.00804 0.06969,-0.00773 0.05992,-0.024011 0.002,-0.00149 0.01403,-0.0093 0,-0.638701 0.10432,0.025918 0.11813,0.010878 0.09625,-0.0041 0.08605,-0.013873 0.144065,-0.046524 0.103689,-0.054391 0.06629,-0.045467 0.0077,-0.014031 0.01214,-0.022308 0,-0.033785 0,-0.7332526 0,-0.2687814 -0.01976,-0.035693 -0.169982,-0.1032635 -0.0038,-0.00151 -0.139808,-0.048653 -0.08605,-0.016364 -0.0952,-0.00568 z m -18.517004,0.2120496 0.148826,0.00993 0.129749,0.030601 0.111777,0.05078 0.0927,0.071386 0.07442,0.087325 0.0095,0.017847 0.04383,0.082437 0.03216,0.113038 0.0063,0.076699 0.0047,0.048448 0,0.1149457 0,0.045262 0,0.05078 0,0.2577314 0,0.047375 0,0.040801 0,0.2075879 0,0.1831547 0,0.1213148 0.0013,0.00662 0.01261,0.059277 0.01261,0.012297 0.0047,0.00378 0.02459,0.00552 0.08529,-0.028898 0.02097,0.052057 0.03184,0.078623 0.03657,0.090509 -0.06479,0.047375 -0.06826,0.03399 -0.07047,0.02018 -0.0011,2.176e-4 -0.07567,0.00662 -0.104681,-0.011667 -0.08372,-0.035267 -0.06243,-0.058647 -0.02917,-0.058001 -0.01261,-0.024232 -0.09523,0.08414 -0.09113,0.051002 -0.0164,0.00915 -0.119817,0.035913 -0.131955,0.011824 -0.13149,-0.00993 -0.11807,-0.029749 -0.105,-0.049299 -0.0918,-0.069478 -0.039,-0.044616 -0.0337,-0.038673 -0.052,-0.09136 -0.008,-0.026565 -0.0227,-0.072032 -0.011,-0.1068737 0.003,-0.059277 10e-4,-0.045467 0.0158,-0.093694 0.0269,-0.081585 0.0369,-0.070535 0.0913,-0.1034684 0.011,-0.01277 0.12881,-0.088602 0.13826,-0.056945 0.16743,-0.042062 0.0246,-0.00347 0.171463,-0.023584 0.224799,-0.011509 0,-0.019344 0,-0.2772805 -0.01939,-0.079253 -0.05786,-0.070961 -0.04162,-0.031231 -0.05298,-0.021883 -0.136844,-0.018272 -0.08781,0.011509 -0.0432,0.00552 -0.0511,0.020827 -0.0412,0.029324 -0.0814,0.2713307 -0.42581,-0.1294025 0.0273,-0.082863 0.0363,-0.076494 0.0442,-0.068848 0.011,-0.013243 0.0421,-0.048873 0.0617,-0.054817 0.0701,-0.047801 0.16552,-0.074791 0.13795,-0.031231 0.154642,-0.010405 z m 3.966068,0 0.178478,0.016995 0.162119,0.051632 0.146177,0.086268 0.04484,0.041431 0.07712,0.071607 0.0079,0.00725 0.04547,0.06396 0.02677,0.0376 0.03464,0.048448 0.07585,0.1727417 0.04589,0.1965396 0.01513,0.2201246 -0.003,0.042709 -0.01324,0.1865536 -0.04865,0.2039761 -0.08138,0.1780546 -0.05206,0.078196 -6.56e-4,0.00127 -0.06098,0.073088 -0.0187,0.017421 -0.05567,0.050985 -0.0529,0.048447 -0.142566,0.083714 -0.157654,0.050149 -0.172955,0.01657 -0.127274,-0.012612 -0.0529,-0.00536 -0.16297,-0.053113 -0.145767,-0.088602 -0.04058,-0.039303 -0.08775,-0.084991 -0.106448,-0.1521362 -0.07585,-0.1765663 -0.04589,-0.201214 -0.01166,-0.174654 -0.0035,-0.051206 0.01056,-0.1417152 0.0063,-0.0869 0.05206,-0.2016397 0.08223,-0.1729545 0.101355,-0.1349204 0.0067,-0.0093 0.126218,-0.113243 0.141715,-0.080955 0.158507,-0.048226 0.04738,-0.00426 0.127274,-0.011824 z m 1.599937,0 0.130033,0.1334384 0,0.1344948 0,0.045041 0,1.2009099 0,0.2230979 0.239246,0.066719 0,0.043135 0,0.1287562 0,0.053539 -0.517589,0 -0.294066,0 -0.01827,-0.092638 -0.01764,-0.089658 -0.0086,-0.043135 0.251357,-0.058647 0,-0.687782 0,-0.7319756 -0.22331,0.016995 -0.01183,-0.074365 -0.02848,-0.1761423 0.350797,-0.064591 0.148305,-0.027196 z m 2.780025,0 0.128757,0.00898 0.117925,0.027416 0.1073,0.045894 0.09668,0.06396 0.08181,0.083289 0.02337,0.038452 0.03484,0.056723 0.03506,0.1070946 0.01151,0.1192022 -0.0112,0.1285512 -0.03336,0.1262022 -0.06055,0.1160177 -0.03867,0.03995 -0.06311,0.065237 -0.04271,0.03038 -0.0067,0.00505 -0.02486,0.017641 -0.08519,0.046319 -0.04123,0.014504 -0.162332,0.05737 -0.247107,0.045041 -0.290667,0.017642 0.03399,0.1147406 0.01088,0.036118 0.0697,0.1223869 0.09477,0.094545 0.119627,0.066294 0.0971,0.028472 0.105598,0.0093 0.168492,-0.015134 0.01805,-0.00149 0.134069,-0.046319 0.09327,-0.052057 0.06098,-0.048226 0.0037,0.012139 0.0093,0.0306 0.07181,0.2345736 0.0047,0.015292 -0.06013,0.045893 -0.0903,0.045894 -0.201852,0.065868 -0.199727,0.026991 -0.198238,-0.012297 -0.19569,-0.051206 -0.162756,-0.080104 -0.06885,-0.056315 -0.0079,-0.00662 -0.05885,-0.048226 -0.107946,-0.1415103 -0.08074,-0.1725288 -0.02996,-0.09795 -0.02188,-0.1055968 -0.01576,-0.2171496 -0.0012,-0.017642 0.01805,-0.2390337 0.02274,-0.1079301 0.03209,-0.099858 0.08519,-0.1795428 0.07521,-0.1002832 0.03399,-0.045041 6.54e-4,-8.482e-4 0.128977,-0.1166483 0.144695,-0.083714 0.159994,-0.050149 0.174867,-0.016569 z m 2.420093,0.011194 -0.119203,6.557e-4 -0.152987,0.022103 -0.199304,0.072458 -0.09073,0.046099 -0.04972,0.034637 -0.0043,0.00283 -0.01151,0.031231 -0.0035,0.046745 -0.0037,0.050149 -0.01529,1.2924865 0.03803,0.01545 0.04823,0.019974 0.117705,0.00425 0.09858,-0.02677 4.24e-4,-0.072237 6.56e-4,-0.139382 0.0017,-0.3546209 0.0035,-0.669934 0.154248,-0.053114 0.111761,-0.010405 0.119408,0.00108 0.206312,0.05715 0,0.6752452 0,0.5656095 0.04462,0.015766 0.104966,0.014189 0.10432,-0.014189 0.04441,-0.015134 0.003,-0.5662464 0.0037,-0.669934 0.07948,-0.032729 0.101355,-0.024642 0.08626,-0.00237 0.144474,0.011194 4.25e-4,0 0.154265,0.053113 0.0032,0.6652595 0.003,0.5709192 0.09858,0.026565 0.117278,-0.00378 0.08669,-0.035063 -0.0066,-0.558597 -0.0086,-0.7343136 -0.0041,-0.055037 -0.0032,-0.041652 -0.01166,-0.031231 -0.05354,-0.037822 -0.09094,-0.045467 -0.199301,-0.072458 -0.08562,-0.012297 -0.0682,-0.00993 -0.21545,0.00725 -0.07945,0.012297 -0.160207,0.054817 -0.0047,0.00283 -0.03506,0.021457 -0.171894,-0.066924 -0.05439,-0.01214 -0.05928,-0.012928 -0.118351,-0.012297 z m 10.958405,0.01679 -0.05757,0.00552 -0.101763,0.037821 -0.0408,0.030806 0.0461,0.1657308 0.392229,1.4089235 0.112187,0.040376 0.04887,0.00552 0.08329,0.00961 0.134069,-0.01545 0.111761,-0.041652 0.332311,-1.1913483 0.06034,-0.2158741 0.04462,-0.1599938 -0.04101,-0.03038 -0.0478,-0.023159 -0.01614,-0.00441 -0.03697,-0.010248 -0.05694,-0.00505 -0.101558,0.016569 -0.06035,0.216724 -0.321476,1.1533157 -0.321048,-1.1533157 -0.06225,-0.2233108 -0.10008,-0.01657 z m -3.205187,0.039524 0.109428,0.018493 0.107094,0.043135 0,0.1387513 0,0.6268013 -0.103894,0.04356 -0.105392,0.011824 -0.11452,-0.011509 -0.102412,-0.039729 0,-0.63105 0,-0.1387515 0.10454,-0.045041 0.105171,-0.016569 z m -4.728635,0.1313101 -0.04376,0.00568 -0.05376,0.023585 0,0.039729 0,0.2260744 0,0.087971 0,0.00615 0,0.1036891 0,0.1412896 0,0.2241622 0,0.1755037 0,0.088396 0,8.481e-4 0.01742,0.036339 0.06735,0.03995 0.04675,0.027842 0.07755,0.025918 0.01151,0.00378 0.111762,0.012297 0.07607,-0.00804 0.03506,-0.00378 0.01277,-0.00426 0.07627,-0.025492 0.108576,-0.06396 0.01933,-0.0204 0.0023,-0.011036 0.0023,-0.00978 0,-0.1225919 0,-0.1113353 0,-0.030175 0,-0.225436 0,-0.1595697 -0.0047,-0.020826 -0.0134,-0.016144 -0.100927,-0.057796 -0.0074,-0.00441 -0.09136,-0.029529 -0.03888,-0.00426 -0.07607,-0.00851 -0.135346,0.020827 0,-0.035913 0,-0.2477456 0,-0.039098 -0.05419,-0.024216 -0.04526,-0.00568 z m -9.824851,0.1140943 -0.109003,0.01277 -0.01806,0.00725 -0.07798,0.031231 -0.08244,0.064165 -0.0697,0.089453 -0.05143,0.1066688 -0.03697,0.1249408 -0.02188,0.1425667 -0.0074,0.1599937 4.24e-4,0.00536 0.0079,0.1519156 0.02421,0.1372537 0.04037,0.1174996 0.05715,0.097525 0.0697,0.074791 0.08031,0.053539 0.06778,0.024011 0.02274,0.00804 0.100284,0.010878 0.100927,-0.010405 0.09094,-0.031231 0.08138,-0.052483 0.0716,-0.072884 0.05865,-0.096673 0.04208,-0.1183509 0.02507,-0.1402334 0.0079,-0.1531926 6.56e-4,-0.00961 -0.0084,-0.1633944 -0.02423,-0.1442693 -0.0408,-0.1251458 -0.05673,-0.1055968 -0.06863,-0.086047 -0.08052,-0.061186 -0.09221,-0.036765 -0.103688,-0.012297 z m -2.022126,0.00426 -0.09625,0.010405 -0.09454,0.031231 -0.07882,0.042913 -0.05907,0.053113 0,0.6023681 0,0.5666704 0.04654,0.039728 0.07521,0.035488 0.09221,0.025067 0.09051,0.00851 0.0884,-0.00741 0.08585,-0.021883 0.08244,-0.045893 0.07607,-0.070961 0.0077,-0.010405 0.06863,-0.093709 0.05481,-0.1285512 0.03229,-0.1531925 0.009,-0.143418 0.0023,-0.034637 -0.0098,-0.1684929 -0.02805,-0.1463976 -0.04695,-0.1249409 -0.06566,-0.1028378 -0.01657,-0.016995 -0.05269,-0.053965 -0.07882,-0.051206 -0.08775,-0.0306 -0.09689,-0.00993 z m 6.414626,0 -0.105597,0.0093 -0.08946,0.028047 -0.07394,0.046965 -0.06777,0.066073 -0.06374,0.09434 -0.04376,0.1005045 -0.005,0.011667 -0.03442,0.1298281 -0.01954,0.1476747 0.258585,-0.011036 0.184002,-0.034842 0.128757,-0.056298 0.09434,-0.068848 0.03399,-0.042077 0.02083,-0.040581 0.003,-0.00615 0.01466,-0.051206 0.0047,-0.056298 -0.01545,-0.1062433 -0.0067,-0.013243 -0.03867,-0.072458 -0.03379,-0.033139 -0.04144,-0.023159 -0.04802,-0.014189 -0.05524,-0.00473 z m 7.297671,0.2088634 -0.119833,0.015134 -0.1175,0.046319 -0.07139,0.045467 -0.01356,0.015765 -0.0035,0.013873 -0.0019,0.00741 0,0.00741 0,0.2237364 0.24817,0.1561722 0.04334,0.027416 0.06035,0.038027 0.108781,0.068422 -8.86e-4,0.063534 -0.05587,0.019975 -0.05206,0.00631 -0.0086,0.00107 -0.0189,0.0019 -0.0595,-0.00741 -0.01119,-0.0019 -0.05822,-0.021457 0,-0.1153713 -0.05354,-0.023806 -0.04398,-0.00552 -0.04355,0.00552 -0.05439,0.023159 0,0.04356 0,0.139382 0.005,0.020401 0.01293,0.016364 0.07288,0.046965 0.116853,0.045894 0.01849,0.00237 0.101355,0.01277 0.02423,-0.00315 0.07755,-0.00961 0.0185,-0.00237 0.0096,-0.00378 0.106874,-0.042062 0.07203,-0.046319 0.01356,-0.01657 0.0047,-0.0204 0,-0.2301104 -0.05269,-0.033139 -0.142788,-0.090083 -0.107299,-0.067776 -0.157229,-0.099227 8.86e-4,-0.063534 0.05673,-0.020401 0.0578,-0.0093 0.04185,0.00441 0.0495,0.00505 0.0578,0.021678 0,0.1145201 0.05439,0.024642 0.04419,0.00536 0.04398,-0.00536 0.05291,-0.024011 0,-0.1825163 -0.0019,-0.00835 -0.0029,-0.0134 -0.01356,-0.016144 -0.07118,-0.046319 -0.117295,-0.045467 -0.09604,-0.012139 -0.02421,-0.003 z m -1.040067,0.00473 -0.04356,0.00552 -0.05397,0.022939 0,0.2902412 0,0.041226 0,0.1665806 0,0.094119 0,0.069273 0,0.088807 0,0.01277 0.0185,0.03697 0.11113,0.065868 0.07925,0.026991 0.01025,0.00347 0.112187,0.01277 0.04121,-0.00441 0.06777,-0.00741 0.01277,-0.00426 0.07479,-0.024641 0.116017,-0.069053 0.01324,-0.016144 0.0049,-0.020827 0,-0.1005045 0,-0.076494 0,-0.08712 0,-0.3945674 0,-0.076919 0,-0.024862 -0.05439,-0.024437 -0.04505,-0.00568 -0.04355,0.00552 -0.05439,0.022954 2.18e-4,0.051411 0,0.052057 6.54e-4,0.3945674 4.24e-4,0.1697667 -0.07055,0.029529 -0.02274,0.00315 -0.04356,0.00568 -0.06524,-0.00898 -0.06672,-0.026565 0,-0.1727416 0,-0.09434 0,-0.4020039 -0.05419,-0.024437 -0.04528,-0.00568 z m -0.590468,0.1973892 0.07053,0.00773 0.0055,0.00205 0.05652,0.020605 0,0.2987404 0,0.11452 0,0.067571 -0.05652,0.023585 -0.0098,0.0041 -0.06246,0.00851 -0.06672,-0.00851 -0.06459,-0.026991 0,-0.1827275 0,-0.2993789 0.05971,-0.022103 0.06777,-0.00773 z m -13.737583,0.3947786 -0.232445,0.011509 -0.161064,0.034637 -0.003,0.00127 -0.10925,0.0478 -0.0831,0.063534 -0.0519,0.076274 -0.0172,0.094119 0,8.482e-4 0.008,0.088602 0.0213,0.065868 0.0771,0.083714 0.0933,0.041652 0.0624,0.00488 0.0473,0.00363 0.06101,-0.00662 0.06086,-0.018493 0.109412,-0.067144 0.07221,-0.075217 0.0454,-0.091581 0,-0.3592954 z m -2.174049,2.08565554 10.869384,0 0.695006,0 14.001263,0 20.691894,0 3.231534,0 0,24.67176346 -3.231534,0 -46.257547,0 0,-24.67176346 z"
         style="fill:none;stroke:#ffffff;stroke-width:0.05439365;stroke-linecap:square;stroke-linejoin:miter;stroke-miterlimit:4;stroke-dasharray:none;stroke-opacity:1" />
    </g>
    <g
       transform="translate(-265.32934,-198.18355)"
       id="layer1-9"
       inkscape:label="Calque 1">
      <rect
         ry="0.62714684"
         rx="0.62749994"
         y="486.02463"
         x="317.55075"
         height="125"
         width="125"
         id="rect20928"
         style="fill:#2c3e50;fill-opacity:1;stroke:none" />
    </g>
    <g
       id="g4762"
       transform="matrix(0.88090525,0,0,0.88090525,-82.19513,39.605798)">
      <g
         style="opacity:0.3;fill:#000000;fill-opacity:1"
         transform="matrix(1.467624,0,0,1.467624,50.656746,19.450288)"
         id="g3778">
        <circle
           style="opacity:1;fill:#000000;fill-opacity:1;stroke:none;stroke-opacity:1"
           id="circle3780"
           cx="135.29727"
           cy="206.04294"
           r="2" />
        <circle
           r="2"
           cy="206.04294"
           cx="100.29726"
           id="circle3782"
           style="opacity:1;fill:#000000;fill-opacity:1;stroke:none;stroke-opacity:1" />
        <circle
           r="2"
           cy="206.04294"
           cx="130.29727"
           id="circle3784"
           style="opacity:1;fill:#000000;fill-opacity:1;stroke:none;stroke-opacity:1" />
        <circle
           r="2"
           cy="211.04294"
           cx="105.29726"
           id="circle3786"
           style="opacity:1;fill:#000000;fill-opacity:1;stroke:none;stroke-opacity:1" />
        <circle
           r="2"
           cy="221.04294"
           cx="120.29726"
           id="circle3788"
           style="opacity:1;fill:#000000;fill-opacity:1;stroke:none;stroke-opacity:1" />
        <circle
           style="opacity:1;fill:#000000;fill-opacity:1;stroke:none;stroke-opacity:1"
           id="circle3790"
           cx="125.29726"
           cy="221.04294"
           r="2" />
        <circle
           style="opacity:1;fill:#000000;fill-opacity:1;stroke:none;stroke-opacity:1"
           id="circle3792"
           cx="130.29727"
           cy="221.04294"
           r="2" />
        <circle
           r="2"
           cy="226.04294"
           cx="95.297264"
           id="circle3794"
           style="opacity:1;fill:#000000;fill-opacity:1;stroke:none;stroke-opacity:1" />
        <circle
           style="opacity:1;fill:#000000;fill-opacity:1;stroke:none;stroke-opacity:1"
           id="circle3796"
           cx="100.29726"
           cy="226.04294"
           r="2" />
        <circle
           r="2"
           cy="226.04294"
           cx="135.29727"
           id="circle3798"
           style="opacity:1;fill:#000000;fill-opacity:1;stroke:none;stroke-opacity:1" />
        <circle
           style="opacity:1;fill:#000000;fill-opacity:1;stroke:none;stroke-opacity:1"
           id="circle3800"
           cx="90.297264"
           cy="231.04294"
           r="2" />
        <circle
           r="2"
           cy="226.04294"
           cx="105.29726"
           id="circle3802"
           style="opacity:1;fill:#000000;fill-opacity:1;stroke:none;stroke-opacity:1" />
        <circle
           style="opacity:1;fill:#000000;fill-opacity:1;stroke:none;stroke-opacity:1"
           id="circle3804"
           cx="110.29726"
           cy="226.04294"
           r="2" />
        <circle
           r="2"
           cy="226.04294"
           cx="140.29727"
           id="circle3806"
           style="opacity:1;fill:#000000;fill-opacity:1;stroke:none;stroke-opacity:1" />
        <circle
           r="2"
           cy="226.04294"
           cx="130.29727"
           id="circle3808"
           style="opacity:1;fill:#000000;fill-opacity:1;stroke:none;stroke-opacity:1" />
        <circle
           r="2"
           cy="231.04294"
           cx="100.29726"
           id="circle3810"
           style="opacity:1;fill:#000000;fill-opacity:1;stroke:none;stroke-opacity:1" />
        <circle
           style="opacity:1;fill:#000000;fill-opacity:1;stroke:none;stroke-opacity:1"
           id="circle3812"
           cx="110.29726"
           cy="231.04294"
           r="2" />
        <circle
           style="opacity:1;fill:#000000;fill-opacity:1;stroke:none;stroke-opacity:1"
           id="circle3814"
           cx="125.29726"
           cy="241.04294"
           r="2" />
        <circle
           style="opacity:1;fill:#000000;fill-opacity:1;stroke:none;stroke-opacity:1"
           id="circle3816"
           cx="145.29727"
           cy="241.04294"
           r="2" />
        <circle
           style="opacity:1;fill:#000000;fill-opacity:1;stroke:none;stroke-opacity:1"
           id="circle3818"
           cx="95.297264"
           cy="246.04294"
           r="2" />
        <circle
           r="2"
           cy="246.04294"
           cx="140.29727"
           id="circle3820"
           style="opacity:1;fill:#000000;fill-opacity:1;stroke:none;stroke-opacity:1" />
        <circle
           style="opacity:1;fill:#000000;fill-opacity:1;stroke:none;stroke-opacity:1"
           id="circle3822"
           cx="100.29726"
           cy="246.04294"
           r="2" />
        <circle
           style="opacity:1;fill:#000000;fill-opacity:1;stroke:none;stroke-opacity:1"
           id="circle3824"
           cx="105.29726"
           cy="246.04294"
           r="2" />
        <circle
           style="opacity:1;fill:#000000;fill-opacity:1;stroke:none;stroke-opacity:1"
           id="circle3826"
           cx="130.29727"
           cy="246.04294"
           r="2" />
        <circle
           r="2"
           cy="246.04294"
           cx="135.29727"
           id="circle3828"
           style="opacity:1;fill:#000000;fill-opacity:1;stroke:none;stroke-opacity:1" />
        <circle
           style="opacity:1;fill:#000000;fill-opacity:1;stroke:none;stroke-opacity:1"
           id="circle3830"
           cx="130.29727"
           cy="216.04294"
           r="2" />
        <circle
           style="opacity:1;fill:#000000;fill-opacity:1;stroke:none;stroke-opacity:1"
           id="circle3832"
           cx="135.29727"
           cy="216.04294"
           r="2" />
        <circle
           r="2"
           cy="221.04294"
           cx="110.29726"
           id="circle3834"
           style="opacity:1;fill:#000000;fill-opacity:1;stroke:none;stroke-opacity:1" />
        <circle
           style="opacity:1;fill:#000000;fill-opacity:1;stroke:none;stroke-opacity:1"
           id="circle3836"
           cx="115.29726"
           cy="221.04294"
           r="2" />
        <circle
           r="2"
           cy="211.04294"
           cx="140.29727"
           id="circle3838"
           style="opacity:1;fill:#000000;fill-opacity:1;stroke:none;stroke-opacity:1" />
        <circle
           r="2"
           cy="216.04294"
           cx="110.29726"
           id="circle3840"
           style="opacity:1;fill:#000000;fill-opacity:1;stroke:none;stroke-opacity:1" />
        <circle
           r="2"
           cy="231.04294"
           cx="120.29726"
           id="circle3842"
           style="opacity:1;fill:#000000;fill-opacity:1;stroke:none;stroke-opacity:1" />
        <circle
           r="2"
           cy="236.04294"
           cx="90.297264"
           id="circle3844"
           style="opacity:1;fill:#000000;fill-opacity:1;stroke:none;stroke-opacity:1" />
        <circle
           style="opacity:1;fill:#000000;fill-opacity:1;stroke:none;stroke-opacity:1"
           id="circle3846"
           cx="100.29726"
           cy="236.04294"
           r="2" />
        <circle
           r="2"
           cy="236.04294"
           cx="105.29726"
           id="circle3848"
           style="opacity:1;fill:#000000;fill-opacity:1;stroke:none;stroke-opacity:1" />
        <circle
           style="opacity:1;fill:#000000;fill-opacity:1;stroke:none;stroke-opacity:1"
           id="circle3850"
           cx="110.29726"
           cy="241.04294"
           r="2" />
        <circle
           r="2"
           cy="231.04294"
           cx="125.29726"
           id="circle3852"
           style="opacity:1;fill:#000000;fill-opacity:1;stroke:none;stroke-opacity:1" />
        <circle
           style="opacity:1;fill:#000000;fill-opacity:1;stroke:none;stroke-opacity:1"
           id="circle3854"
           cx="130.29727"
           cy="231.04294"
           r="2" />
        <circle
           r="2"
           cy="231.04294"
           cx="145.29727"
           id="circle3856"
           style="opacity:1;fill:#000000;fill-opacity:1;stroke:none;stroke-opacity:1" />
        <circle
           style="opacity:1;fill:#000000;fill-opacity:1;stroke:none;stroke-opacity:1"
           id="circle3858"
           cx="110.29726"
           cy="236.04294"
           r="2" />
        <circle
           style="opacity:1;fill:#000000;fill-opacity:1;stroke:none;stroke-opacity:1"
           id="circle3860"
           cx="115.29726"
           cy="236.04294"
           r="2" />
        <circle
           r="2"
           cy="236.04294"
           cx="125.29726"
           id="circle3862"
           style="opacity:1;fill:#000000;fill-opacity:1;stroke:none;stroke-opacity:1" />
        <circle
           style="opacity:1;fill:#000000;fill-opacity:1;stroke:none;stroke-opacity:1"
           id="circle3864"
           cx="135.29727"
           cy="236.04294"
           r="2" />
        <circle
           style="opacity:1;fill:#000000;fill-opacity:1;stroke:none;stroke-opacity:1"
           id="circle3866"
           cx="145.29727"
           cy="236.04294"
           r="2" />
        <circle
           style="opacity:1;fill:#000000;fill-opacity:1;stroke:none;stroke-opacity:1"
           id="circle3868"
           cx="90.297264"
           cy="241.04294"
           r="2" />
      </g>
      <g
         style="fill:#fcaf3e;fill-opacity:1"
         id="g3605"
         transform="matrix(1.467624,0,0,1.467624,50.656746,18.007657)">
        <circle
           r="2"
           cy="206.04294"
           cx="135.29727"
           id="circle3607"
           style="opacity:1;fill:#fcaf3e;fill-opacity:1;stroke:none;stroke-opacity:1" />
        <circle
           style="opacity:1;fill:#fcaf3e;fill-opacity:1;stroke:none;stroke-opacity:1"
           id="circle3609"
           cx="100.29726"
           cy="206.04294"
           r="2" />
        <circle
           style="opacity:1;fill:#fcaf3e;fill-opacity:1;stroke:none;stroke-opacity:1"
           id="circle3611"
           cx="130.29727"
           cy="206.04294"
           r="2" />
        <circle
           style="opacity:1;fill:#fcaf3e;fill-opacity:1;stroke:none;stroke-opacity:1"
           id="circle3613"
           cx="105.29726"
           cy="211.04294"
           r="2" />
        <circle
           style="opacity:1;fill:#fcaf3e;fill-opacity:1;stroke:none;stroke-opacity:1"
           id="circle3615"
           cx="120.29726"
           cy="221.04294"
           r="2" />
        <circle
           r="2"
           cy="221.04294"
           cx="125.29726"
           id="circle3617"
           style="opacity:1;fill:#fcaf3e;fill-opacity:1;stroke:none;stroke-opacity:1" />
        <circle
           r="2"
           cy="221.04294"
           cx="130.29727"
           id="circle3619"
           style="opacity:1;fill:#fcaf3e;fill-opacity:1;stroke:none;stroke-opacity:1" />
        <circle
           style="opacity:1;fill:#fcaf3e;fill-opacity:1;stroke:none;stroke-opacity:1"
           id="circle3621"
           cx="95.297264"
           cy="226.04294"
           r="2" />
        <circle
           r="2"
           cy="226.04294"
           cx="100.29726"
           id="circle3623"
           style="opacity:1;fill:#fcaf3e;fill-opacity:1;stroke:none;stroke-opacity:1" />
        <circle
           style="opacity:1;fill:#fcaf3e;fill-opacity:1;stroke:none;stroke-opacity:1"
           id="circle3625"
           cx="135.29727"
           cy="226.04294"
           r="2" />
        <circle
           r="2"
           cy="231.04294"
           cx="90.297264"
           id="circle3627"
           style="opacity:1;fill:#fcaf3e;fill-opacity:1;stroke:none;stroke-opacity:1" />
        <circle
           style="opacity:1;fill:#fcaf3e;fill-opacity:1;stroke:none;stroke-opacity:1"
           id="circle3629"
           cx="105.29726"
           cy="226.04294"
           r="2" />
        <circle
           r="2"
           cy="226.04294"
           cx="110.29726"
           id="circle3631"
           style="opacity:1;fill:#fcaf3e;fill-opacity:1;stroke:none;stroke-opacity:1" />
        <circle
           style="opacity:1;fill:#fcaf3e;fill-opacity:1;stroke:none;stroke-opacity:1"
           id="circle3633"
           cx="140.29727"
           cy="226.04294"
           r="2" />
        <circle
           style="opacity:1;fill:#fcaf3e;fill-opacity:1;stroke:none;stroke-opacity:1"
           id="circle3635"
           cx="130.29727"
           cy="226.04294"
           r="2" />
        <circle
           style="opacity:1;fill:#fcaf3e;fill-opacity:1;stroke:none;stroke-opacity:1"
           id="circle3637"
           cx="100.29726"
           cy="231.04294"
           r="2" />
        <circle
           r="2"
           cy="231.04294"
           cx="110.29726"
           id="circle3639"
           style="opacity:1;fill:#fcaf3e;fill-opacity:1;stroke:none;stroke-opacity:1" />
        <circle
           r="2"
           cy="241.04294"
           cx="125.29726"
           id="circle3641"
           style="opacity:1;fill:#fcaf3e;fill-opacity:1;stroke:none;stroke-opacity:1" />
        <circle
           r="2"
           cy="241.04294"
           cx="145.29727"
           id="circle3643"
           style="opacity:1;fill:#fcaf3e;fill-opacity:1;stroke:none;stroke-opacity:1" />
        <circle
           r="2"
           cy="246.04294"
           cx="95.297264"
           id="circle3645"
           style="opacity:1;fill:#fcaf3e;fill-opacity:1;stroke:none;stroke-opacity:1" />
        <circle
           style="opacity:1;fill:#fcaf3e;fill-opacity:1;stroke:none;stroke-opacity:1"
           id="circle3647"
           cx="140.29727"
           cy="246.04294"
           r="2" />
        <circle
           r="2"
           cy="246.04294"
           cx="100.29726"
           id="circle3649"
           style="opacity:1;fill:#fcaf3e;fill-opacity:1;stroke:none;stroke-opacity:1" />
        <circle
           r="2"
           cy="246.04294"
           cx="105.29726"
           id="circle3651"
           style="opacity:1;fill:#fcaf3e;fill-opacity:1;stroke:none;stroke-opacity:1" />
        <circle
           r="2"
           cy="246.04294"
           cx="130.29727"
           id="circle3653"
           style="opacity:1;fill:#fcaf3e;fill-opacity:1;stroke:none;stroke-opacity:1" />
        <circle
           style="opacity:1;fill:#fcaf3e;fill-opacity:1;stroke:none;stroke-opacity:1"
           id="circle3655"
           cx="135.29727"
           cy="246.04294"
           r="2" />
        <circle
           r="2"
           cy="216.04294"
           cx="130.29727"
           id="circle3657"
           style="opacity:1;fill:#fcaf3e;fill-opacity:1;stroke:none;stroke-opacity:1" />
        <circle
           r="2"
           cy="216.04294"
           cx="135.29727"
           id="circle3659"
           style="opacity:1;fill:#fcaf3e;fill-opacity:1;stroke:none;stroke-opacity:1" />
        <circle
           style="opacity:1;fill:#fcaf3e;fill-opacity:1;stroke:none;stroke-opacity:1"
           id="circle3661"
           cx="110.29726"
           cy="221.04294"
           r="2" />
        <circle
           r="2"
           cy="221.04294"
           cx="115.29726"
           id="circle3663"
           style="opacity:1;fill:#fcaf3e;fill-opacity:1;stroke:none;stroke-opacity:1" />
        <circle
           style="opacity:1;fill:#fcaf3e;fill-opacity:1;stroke:none;stroke-opacity:1"
           id="circle3665"
           cx="140.29727"
           cy="211.04294"
           r="2" />
        <circle
           style="opacity:1;fill:#fcaf3e;fill-opacity:1;stroke:none;stroke-opacity:1"
           id="circle3667"
           cx="110.29726"
           cy="216.04294"
           r="2" />
        <circle
           style="opacity:1;fill:#fcaf3e;fill-opacity:1;stroke:none;stroke-opacity:1"
           id="circle3669"
           cx="120.29726"
           cy="231.04294"
           r="2" />
        <circle
           style="opacity:1;fill:#fcaf3e;fill-opacity:1;stroke:none;stroke-opacity:1"
           id="circle3671"
           cx="90.297264"
           cy="236.04294"
           r="2" />
        <circle
           r="2"
           cy="236.04294"
           cx="100.29726"
           id="circle3673"
           style="opacity:1;fill:#fcaf3e;fill-opacity:1;stroke:none;stroke-opacity:1" />
        <circle
           style="opacity:1;fill:#fcaf3e;fill-opacity:1;stroke:none;stroke-opacity:1"
           id="circle3675"
           cx="105.29726"
           cy="236.04294"
           r="2" />
        <circle
           r="2"
           cy="241.04294"
           cx="110.29726"
           id="circle3677"
           style="opacity:1;fill:#fcaf3e;fill-opacity:1;stroke:none;stroke-opacity:1" />
        <circle
           style="opacity:1;fill:#fcaf3e;fill-opacity:1;stroke:none;stroke-opacity:1"
           id="circle3679"
           cx="125.29726"
           cy="231.04294"
           r="2" />
        <circle
           r="2"
           cy="231.04294"
           cx="130.29727"
           id="circle3681"
           style="opacity:1;fill:#fcaf3e;fill-opacity:1;stroke:none;stroke-opacity:1" />
        <circle
           style="opacity:1;fill:#fcaf3e;fill-opacity:1;stroke:none;stroke-opacity:1"
           id="circle3683"
           cx="145.29727"
           cy="231.04294"
           r="2" />
        <circle
           r="2"
           cy="236.04294"
           cx="110.29726"
           id="circle3685"
           style="opacity:1;fill:#fcaf3e;fill-opacity:1;stroke:none;stroke-opacity:1" />
        <circle
           r="2"
           cy="236.04294"
           cx="115.29726"
           id="circle3687"
           style="opacity:1;fill:#fcaf3e;fill-opacity:1;stroke:none;stroke-opacity:1" />
        <circle
           style="opacity:1;fill:#fcaf3e;fill-opacity:1;stroke:none;stroke-opacity:1"
           id="circle3689"
           cx="125.29726"
           cy="236.04294"
           r="2" />
        <circle
           r="2"
           cy="236.04294"
           cx="135.29727"
           id="circle3691"
           style="opacity:1;fill:#fcaf3e;fill-opacity:1;stroke:none;stroke-opacity:1" />
        <circle
           r="2"
           cy="236.04294"
           cx="145.29727"
           id="circle3693"
           style="opacity:1;fill:#fcaf3e;fill-opacity:1;stroke:none;stroke-opacity:1" />
        <circle
           r="2"
           cy="241.04294"
           cx="90.297264"
           id="circle3695"
           style="opacity:1;fill:#fcaf3e;fill-opacity:1;stroke:none;stroke-opacity:1" />
      </g>
    </g>
  </g>
</svg>
