<?xml version="1.0" encoding="UTF-8" standalone="no"?>
<!-- Created with Inkscape (http://www.inkscape.org/) -->
<svg xmlns:dc="http://purl.org/dc/elements/1.1/" xmlns:cc="http://creativecommons.org/ns#" xmlns:rdf="http://www.w3.org/1999/02/22-rdf-syntax-ns#" xmlns:svg="http://www.w3.org/2000/svg" xmlns="http://www.w3.org/2000/svg" xmlns:sodipodi="http://sodipodi.sourceforge.net/DTD/sodipodi-0.dtd" xmlns:inkscape="http://www.inkscape.org/namespaces/inkscape" width="125" height="125" id="svg21042" version="1.1" inkscape:version="0.48.4 r9939" sodipodi:docname="opensource.svg">
  <defs id="defs21044"/>
  <sodipodi:namedview id="base" pagecolor="#ffffff" bordercolor="#666666" borderopacity="1.0" inkscape:pageopacity="0.0" inkscape:pageshadow="2" inkscape:zoom="7.919596" inkscape:cx="71.804092" inkscape:cy="51.666206" inkscape:document-units="px" inkscape:current-layer="g3897" showgrid="false" inkscape:window-width="1871" inkscape:window-height="1056" inkscape:window-x="49" inkscape:window-y="24" inkscape:window-maximized="1" fit-margin-top="0" fit-margin-left="0" fit-margin-right="0" fit-margin-bottom="0"/>
  <metadata id="metadata21047">
    <rdf:RDF>
      <cc:Work rdf:about="">
        <dc:format>image/svg+xml</dc:format>
        <dc:type rdf:resource="http://purl.org/dc/dcmitype/StillImage"/>
        <dc:title/>
      </cc:Work>
    </rdf:RDF>
  </metadata>
  <g inkscape:label="Calque 1" inkscape:groupmode="layer" id="layer1" transform="translate(-317.55075,-486.02463)">
    <rect style="fill:#eeeeec;fill-opacity:1;stroke:none" id="rect20928" width="125" height="125" x="317.55075" y="486.02463" rx="0.62749994" ry="0.62714684"/>
    <g id="g3897" transform="translate(-2,4)">
      <path style="opacity:0.28999999;fill:#2e3436;fill-opacity:1;stroke:#2e3436;stroke-width:4;stroke-miterlimit:4;stroke-opacity:1;stroke-dasharray:none" id="path3905" d="m 381.75772,516.19377 c -13.21716,0.12006 -25.63238,8.19858 -30.65632,21.2864 -6.56189,17.0943 1.97346,36.26907 19.06776,42.83095 l 7.5978,-19.80033 c -4.48033,-1.72213 -7.6606,-6.06222 -7.6606,-11.14902 0,-6.5967 5.34769,-11.94439 11.94439,-11.94439 6.5967,0 11.94438,5.34769 11.94438,11.94439 0,5.0868 -3.18026,9.42689 -7.66059,11.14902 l 7.5978,19.80033 c 8.77206,-3.36727 15.70048,-10.2957 19.06776,-19.06776 6.56189,-17.0943 -1.97346,-36.27604 -19.06776,-42.83792 -4.00647,-1.53794 -8.12855,-2.24842 -12.17462,-2.21167 z" inkscape:connector-curvature="0"/>
      <g transform="matrix(0.22325953,0,0,0.22325953,311.61908,404.9235)" id="layer1-4">
        <path inkscape:connector-curvature="0" d="m 314.15745,481.69558 c -59.20089,0.53774 -114.80979,36.72219 -137.3125,95.34375 -29.39129,76.56693 8.83932,162.45246 85.40625,191.84375 l 34.03125,-88.6875 c -20.0678,-7.71358 -34.3125,-27.15324 -34.3125,-49.9375 0,-29.54723 23.95277,-53.5 53.5,-53.5 29.54723,0 53.5,23.95277 53.5,53.5 0,22.78426 -14.2447,42.22392 -34.3125,49.9375 l 34.03125,88.6875 c 39.29085,-15.08234 70.3239,-46.1154 85.40625,-85.40625 29.39129,-76.56693 -8.83932,-162.48371 -85.40625,-191.875 -17.94537,-6.88859 -36.40853,-10.07087 -54.53125,-9.90625 z" id="path2830" style="fill:#40aa54;fill-opacity:1;stroke:#20552a;stroke-width:17.91636848;stroke-miterlimit:4;stroke-opacity:1;stroke-dasharray:none"/>
      </g>
      <g id="g3903" transform="matrix(0.22325953,0,0,0.22325953,311.26055,407.55073)" style="fill:#2e3436;stroke:#2e3436"/>
    </g>
  </g>
</svg>